<svg width="350.000000" height="350.000000" viewBox="0 0 350 350" fill="none" xmlns="http://www.w3.org/2000/svg" xmlns:xlink="http://www.w3.org/1999/xlink">
	<desc>
			Created with Pixso.
	</desc>
	<defs>
		<clipPath id="clip15_1052">
			<rect id="DrawKit Vector Illustration Black Friday &amp; Online Shopping (5)" rx="0.000000" width="349.509796" height="349.509796" transform="translate(0.245098 0.245098)" fill="white" fill-opacity="0"/>
		</clipPath>
	</defs>
	<rect id="DrawKit Vector Illustration Black Friday &amp; Online Shopping (5)" rx="0.000000" width="349.509796" height="349.509796" transform="translate(0.245098 0.245098)" fill="#FFFFFF" fill-opacity="0"/>
	<g clip-path="url(#clip15_1052)">
		<path id="Vector" d="M236.91 46.97L61.95 123.64C46.67 130.33 44.37 151.05 57.8 160.92L211.68 274.13C225.11 284.01 244.2 275.65 246.04 259.08L267.13 69.21C268.97 52.63 252.18 40.28 236.91 46.97Z" fill="#FFF1C9" fill-opacity="1.000000" fill-rule="nonzero"/>
		<path id="Vector" d="M294.11 282.6L38.39 282.6C38.2 282.6 38.02 282.53 37.89 282.39C37.76 282.26 37.69 282.09 37.69 281.9C37.69 281.71 37.76 281.54 37.89 281.4C38.02 281.27 38.2 281.2 38.39 281.2L294.11 281.2C294.29 281.2 294.47 281.27 294.6 281.4C294.73 281.54 294.81 281.71 294.81 281.9C294.81 282.09 294.73 282.26 294.6 282.39C294.47 282.53 294.29 282.6 294.11 282.6Z" fill="#262626" fill-opacity="1.000000" fill-rule="nonzero"/>
		<path id="Vector" d="M198.18 143.44L206.9 114.59C207.03 114.19 207.24 113.82 207.52 113.5C207.8 113.19 208.15 112.94 208.53 112.78C208.92 112.62 209.34 112.54 209.76 112.56C210.18 112.58 210.59 112.69 210.96 112.88L220.39 117.78C220.79 117.99 221.14 118.3 221.41 118.68C221.67 119.05 221.84 119.49 221.9 119.94C221.96 120.4 221.91 120.86 221.76 121.29C221.6 121.72 221.34 122.11 221 122.42L198.18 143.44Z" fill="#D3B970" fill-opacity="1.000000" fill-rule="nonzero"/>
		<path id="Vector" d="M195.94 142.31L220.85 126.8C221.23 126.56 221.67 126.41 222.12 126.36C222.57 126.31 223.03 126.36 223.46 126.52C223.89 126.67 224.28 126.92 224.6 127.24C224.92 127.56 225.17 127.95 225.32 128.38L228.62 137.95C228.78 138.4 228.82 138.89 228.76 139.36C228.69 139.84 228.51 140.29 228.23 140.68C227.96 141.08 227.59 141.4 227.17 141.62C226.74 141.85 226.27 141.97 225.79 141.97L195.94 142.31Z" fill="#D3B970" fill-opacity="1.000000" fill-rule="nonzero"/>
		<path id="Vector" d="M181.72 174.69C181.72 186.28 172.32 195.68 160.72 195.68C149.13 195.68 139.73 186.28 139.73 174.69C139.73 163.09 149.13 153.69 160.72 153.69C172.32 153.69 181.72 163.09 181.72 174.69Z" fill="#262626" fill-opacity="1.000000" fill-rule="evenodd"/>
		<path id="Vector" d="M33.08 83.41L115.53 83.41C120.77 83.41 125.02 87.66 125.02 92.9L125.02 129.4C125.02 134.64 120.77 138.89 115.53 138.89L33.08 138.89C27.84 138.89 23.6 134.64 23.6 129.4L23.6 92.9C23.6 87.66 27.84 83.41 33.08 83.41Z" fill="#FFFFFF" fill-opacity="1.000000" fill-rule="evenodd"/>
		<path id="Vector" d="M115.53 139.59L33.08 139.59C30.38 139.59 27.79 138.51 25.88 136.6C23.97 134.69 22.9 132.1 22.9 129.4L22.9 92.9C22.9 90.2 23.97 87.61 25.88 85.7C27.79 83.79 30.38 82.72 33.08 82.71L115.53 82.71C118.23 82.72 120.82 83.79 122.73 85.7C124.64 87.61 125.72 90.2 125.72 92.9L125.72 129.4C125.72 132.1 124.64 134.69 122.73 136.6C120.82 138.51 118.23 139.59 115.53 139.59ZM33.08 84.11C30.75 84.12 28.52 85.04 26.87 86.69C25.22 88.34 24.3 90.57 24.3 92.9L24.3 129.4C24.3 131.73 25.22 133.97 26.87 135.61C28.52 137.26 30.75 138.19 33.08 138.19L115.53 138.19C117.86 138.19 120.1 137.26 121.74 135.61C123.39 133.96 124.32 131.73 124.32 129.4L124.32 92.9C124.32 90.57 123.39 88.34 121.74 86.69C120.1 85.04 117.86 84.12 115.53 84.11L33.08 84.11Z" fill="#262626" fill-opacity="1.000000" fill-rule="nonzero"/>
		<path id="Vector" d="M42.11 102.13C41.92 102.13 41.75 102.06 41.62 101.93C41.49 101.81 41.41 101.63 41.41 101.45C41.34 98.6 42.39 96.9 43.29 95.97C44.29 94.92 45.65 94.31 47.09 94.26L47.13 94.26C48.53 94.29 49.85 94.87 50.82 95.87C51.74 96.79 52.83 98.5 52.79 101.44C52.79 101.63 52.72 101.8 52.59 101.93C52.46 102.07 52.28 102.14 52.09 102.14C51.91 102.14 51.73 102.07 51.6 101.93C51.47 101.8 51.39 101.63 51.39 101.44C51.42 98.99 50.56 97.59 49.83 96.87C49.12 96.14 48.15 95.71 47.13 95.67L47.1 95.67C46.04 95.72 45.03 96.18 44.3 96.96C43.29 98.01 42.77 99.56 42.81 101.43C42.82 101.52 42.8 101.62 42.77 101.7C42.73 101.79 42.68 101.87 42.62 101.93C42.56 102 42.48 102.05 42.4 102.09C42.31 102.13 42.22 102.15 42.13 102.15L42.11 102.13Z" fill="#262626" fill-opacity="1.000000" fill-rule="nonzero"/>
		<path id="Vector" d="M57.16 129.11L37.14 129.11C36.65 129.11 36.17 129.01 35.72 128.81C35.28 128.6 34.88 128.31 34.56 127.94C34.23 127.57 33.99 127.14 33.85 126.67C33.71 126.2 33.67 125.7 33.74 125.22L36.54 104.41C36.65 103.59 37.05 102.83 37.68 102.28C38.31 101.73 39.11 101.43 39.94 101.43L53.89 101.43C54.71 101.43 55.51 101.72 56.13 102.26C56.75 102.79 57.17 103.53 57.29 104.34L60.55 125.14C60.62 125.63 60.59 126.14 60.46 126.61C60.32 127.09 60.09 127.53 59.77 127.91C59.44 128.29 59.04 128.59 58.59 128.8C58.14 129 57.65 129.11 57.16 129.11Z" fill="#FFE18B" fill-opacity="1.000000" fill-rule="nonzero"/>
		<path id="Vector" d="M73.61 98.26L111.53 98.26C113.04 98.26 114.26 99.48 114.26 100.98L114.26 103.1C114.26 104.61 113.04 105.83 111.53 105.83L73.61 105.83C72.1 105.83 70.88 104.61 70.88 103.1L70.88 100.98C70.88 99.48 72.1 98.26 73.61 98.26Z" fill="#FFBB45" fill-opacity="1.000000" fill-rule="evenodd"/>
		<path id="Vector" d="M112.45 115.41L72.69 115.41C72.51 115.41 72.33 115.34 72.2 115.21C72.07 115.08 71.99 114.9 71.99 114.71C71.99 114.53 72.07 114.35 72.2 114.22C72.33 114.09 72.51 114.01 72.69 114.01L112.45 114.01C112.63 114.01 112.81 114.09 112.94 114.22C113.07 114.35 113.15 114.53 113.15 114.71C113.15 114.9 113.07 115.08 112.94 115.21C112.81 115.34 112.63 115.41 112.45 115.41Z" fill="#262626" fill-opacity="1.000000" fill-rule="nonzero"/>
		<path id="Vector" d="M106.85 124.41L72.69 124.41C72.51 124.41 72.33 124.33 72.2 124.2C72.07 124.07 71.99 123.89 71.99 123.71C71.99 123.52 72.07 123.34 72.2 123.21C72.33 123.08 72.51 123.01 72.69 123.01L106.85 123.01C107.04 123.01 107.21 123.08 107.35 123.21C107.48 123.34 107.55 123.52 107.55 123.71C107.55 123.89 107.48 124.07 107.35 124.2C107.21 124.33 107.04 124.41 106.85 124.41Z" fill="#262626" fill-opacity="1.000000" fill-rule="nonzero"/>
		<path id="Vector" d="M245.46 191.99C245.46 204.03 235.64 213.8 223.51 213.8C211.39 213.8 201.56 204.03 201.56 191.99C201.56 179.94 211.39 170.18 223.51 170.18C235.64 170.18 245.46 179.94 245.46 191.99Z" fill="#262626" fill-opacity="1.000000" fill-rule="evenodd"/>
		<path id="Vector" d="M223.51 162.56C223.51 174.61 213.68 184.37 201.56 184.37C189.44 184.37 179.61 174.61 179.61 162.56C179.61 150.51 189.44 140.75 201.56 140.75C213.68 140.75 223.51 150.51 223.51 162.56Z" fill="#262626" fill-opacity="1.000000" fill-rule="evenodd"/>
		<path id="Vector" d="M182.28 159.06L168.93 159.06C165.65 159.06 162.4 158.41 159.36 157.15C156.33 155.89 153.57 154.05 151.25 151.73C148.93 149.41 147.09 146.65 145.83 143.62C144.57 140.58 143.92 137.33 143.92 134.05L143.92 116.98C143.93 113.06 145.49 109.3 148.27 106.52C151.04 103.75 154.81 102.19 158.73 102.2L176.75 102.2C182.85 102.2 188.7 104.62 193.02 108.94C197.34 113.25 199.76 119.11 199.76 125.21L199.76 141.6C199.76 143.9 199.31 146.17 198.43 148.29C197.55 150.41 196.26 152.33 194.63 153.95C193.01 155.57 191.08 156.86 188.96 157.73C186.84 158.61 184.57 159.06 182.28 159.06Z" fill="#262626" fill-opacity="1.000000" fill-rule="nonzero"/>
		<path id="Vector" d="M149.45 108.04C149.45 108.04 141.53 109.21 139.45 125.95C139.2 128 138.32 129.92 136.92 131.43L135.65 132.81C135.33 133.16 135.15 133.61 135.14 134.08C135.13 134.56 135.29 135.02 135.6 135.38L137.32 137.41L136.45 148.12C136.45 148.12 134.7 159.53 148.14 159.17L156.69 159.17L156.69 171.02L183.55 171.02L183.55 150.66C183.55 150.66 189.67 149.61 190.78 143.59C191.07 142.08 191 140.53 190.6 139.05C190.19 137.57 189.46 136.2 188.45 135.05C186.45 132.78 182.91 130.85 177.09 133.57C177.1 133.57 153.97 138.21 149.45 108.04Z" fill="#FFFFFF" fill-opacity="1.000000" fill-rule="nonzero"/>
		<path id="Vector" d="M181.72 146.17C181.17 146.17 180.62 146.01 180.16 145.7C179.7 145.39 179.34 144.96 179.13 144.44C178.92 143.93 178.86 143.37 178.97 142.83C179.08 142.28 179.35 141.78 179.74 141.39C180.13 141 180.63 140.73 181.17 140.63C181.72 140.52 182.28 140.57 182.79 140.79C183.3 141 183.74 141.36 184.05 141.82C184.35 142.28 184.52 142.82 184.52 143.37C184.52 144.12 184.22 144.83 183.7 145.35C183.17 145.88 182.46 146.17 181.72 146.17ZM181.72 141.95C181.44 141.95 181.17 142.03 180.94 142.19C180.71 142.34 180.53 142.56 180.43 142.82C180.32 143.07 180.29 143.35 180.35 143.63C180.4 143.9 180.53 144.15 180.73 144.34C180.92 144.54 181.17 144.67 181.45 144.73C181.72 144.78 182 144.75 182.25 144.64C182.51 144.54 182.73 144.36 182.88 144.13C183.04 143.9 183.12 143.63 183.12 143.35C183.12 142.98 182.97 142.62 182.71 142.36C182.45 142.1 182.09 141.95 181.72 141.95Z" fill="#262626" fill-opacity="1.000000" fill-rule="nonzero"/>
		<path id="Vector" d="M179.61 144.06C179.43 144.06 179.25 143.99 179.12 143.87C178.99 143.74 178.91 143.57 178.91 143.38C178.86 141.94 179.29 140.77 180.19 139.91C181.99 138.2 184.98 138.42 185.09 138.43C185.28 138.44 185.45 138.53 185.57 138.67C185.69 138.81 185.75 139 185.74 139.18C185.72 139.37 185.64 139.54 185.5 139.66C185.35 139.78 185.17 139.84 184.98 139.83C184.96 139.83 182.48 139.65 181.13 140.93C180.53 141.51 180.25 142.3 180.29 143.35C180.29 143.44 180.28 143.53 180.24 143.62C180.21 143.7 180.16 143.78 180.1 143.85C180.04 143.92 179.96 143.97 179.88 144.01C179.79 144.05 179.7 144.07 179.61 144.07L179.61 144.06Z" fill="#262626" fill-opacity="1.000000" fill-rule="nonzero"/>
		<path id="Vector" d="M153.92 131.89C153.92 132.8 153.18 133.55 152.26 133.55C151.35 133.55 150.61 132.8 150.61 131.89C150.61 130.98 151.35 130.23 152.26 130.23C153.18 130.23 153.92 130.98 153.92 131.89Z" fill="#262626" fill-opacity="1.000000" fill-rule="evenodd"/>
		<path id="Vector" d="M146.45 147.51C145.78 147.51 145.11 147.38 144.49 147.11C142.47 146.26 141.12 144.02 141.13 141.53C141.13 141.33 141.17 141.12 141.26 140.93C141.35 140.74 141.48 140.58 141.64 140.44C141.8 140.31 141.99 140.21 142.19 140.16C142.39 140.11 142.6 140.1 142.81 140.14L151.15 141.63C151.37 141.67 151.57 141.75 151.74 141.88C151.92 142.01 152.06 142.18 152.16 142.37C152.26 142.56 152.32 142.77 152.33 142.99C152.33 143.21 152.29 143.42 152.2 143.62C151.13 146 148.76 147.51 146.45 147.51ZM142.55 141.5C142.55 141.51 142.55 141.52 142.55 141.53C142.55 143.46 143.56 145.18 145.06 145.82C147.36 146.79 150.02 145.12 150.96 143.02L150.94 142.98L142.59 141.49L142.55 141.5Z" fill="#262626" fill-opacity="1.000000" fill-rule="nonzero"/>
		<path id="Vector" d="M156.47 159.19L169.3 159.19C169.41 159.19 169.52 159.23 169.61 159.3C169.7 159.37 169.76 159.47 169.78 159.59C169.81 159.7 169.79 159.81 169.74 159.91C169.69 160.02 169.6 160.1 169.5 160.14L156.47 165.71L156.47 159.19Z" fill="#262626" fill-opacity="1.000000" fill-rule="nonzero"/>
		<path id="Vector" d="M156.47 170.74C156.46 170.1 156.67 169.48 157.04 168.97C157.42 168.45 157.96 168.07 158.57 167.89C159.03 167.75 159.51 167.65 160 167.6C161.83 167.43 163.67 167.89 165.21 168.89C166.5 167.89 168.08 167.35 169.71 167.35C171.34 167.34 172.92 167.88 174.21 168.87C175.52 168 177.04 167.5 178.61 167.45C179.59 167.42 180.57 167.57 181.51 167.89C182.09 168.09 182.59 168.47 182.94 168.97C183.3 169.48 183.49 170.08 183.49 170.69L183.49 176.82L156.47 176.82L156.47 170.74Z" fill="#FFE18B" fill-opacity="1.000000" fill-rule="nonzero"/>
		<path id="Vector" d="M260.66 259.1L106.23 258.97L113.07 196.3C113.72 190.36 116.54 184.86 120.98 180.87C125.43 176.88 131.19 174.66 137.16 174.65L201 174.48C208.45 174.47 215.74 176.67 221.92 180.82C228.11 184.97 232.91 190.88 235.72 197.78C248.67 227.55 258.04 249.3 259.06 251.88C259.55 253.14 259.94 254.44 260.23 255.77C260.45 256.86 260.6 257.98 260.66 259.1Z" fill="#FFE18B" fill-opacity="1.000000" fill-rule="nonzero"/>
		<path id="Vector" d="M213.94 259.02L134.78 259.02L134.78 205.37L194.52 205.37C195.33 205.37 196.13 205.63 196.79 206.11C197.44 206.6 197.93 207.28 198.17 208.06L213.94 259.02Z" fill="#262626" fill-opacity="1.000000" fill-rule="nonzero"/>
		<path id="Vector" d="M194.51 206.07C194.34 206.07 194.18 206.01 194.05 205.91C193.92 205.8 193.84 205.65 193.81 205.49C193.61 204.33 189.11 177.1 198.51 173.83C198.68 173.77 198.87 173.78 199.04 173.86C199.21 173.94 199.34 174.08 199.4 174.26C199.46 174.43 199.45 174.63 199.37 174.79C199.29 174.96 199.14 175.09 198.97 175.15C192.08 177.54 193.91 197.69 195.19 205.25C195.21 205.34 195.2 205.43 195.18 205.52C195.16 205.61 195.12 205.7 195.07 205.77C195.02 205.85 194.95 205.91 194.87 205.96C194.79 206.01 194.71 206.04 194.62 206.06C194.58 206.06 194.54 206.07 194.51 206.07Z" fill="#262626" fill-opacity="1.000000" fill-rule="nonzero"/>
		<path id="Vector" d="M136.53 206.07C136.37 206.07 136.22 206.02 136.09 205.92C135.97 205.82 135.88 205.68 135.84 205.53C134.02 197.91 133.97 189.97 135.7 182.33C136.33 179.61 137.19 176.95 138.26 174.37C138.34 174.21 138.47 174.08 138.64 174.01C138.81 173.94 139 173.94 139.17 174.01C139.34 174.08 139.47 174.22 139.55 174.38C139.62 174.55 139.62 174.74 139.55 174.91C138.51 177.42 137.68 180 137.07 182.65C135.38 190.08 135.43 197.8 137.21 205.21C137.23 205.3 137.23 205.39 137.22 205.48C137.2 205.57 137.17 205.66 137.12 205.74C137.07 205.82 137.01 205.89 136.93 205.94C136.86 205.99 136.77 206.03 136.68 206.05C136.63 206.06 136.58 206.07 136.53 206.07Z" fill="#262626" fill-opacity="1.000000" fill-rule="nonzero"/>
		<path id="Vector" d="M126.52 162.3C125.79 161.36 124.96 160.5 124.03 159.76L123.99 159.72C122.26 158.19 120.76 156.41 119.53 154.45C118.44 152.7 117.78 150.91 116.71 148.15C116.17 146.78 115.79 145.7 115.58 145.1C113.09 137.93 111.45 131.5 108.92 130.58C108.53 130.45 108.14 130.37 107.74 130.34C107.2 130.29 106.66 130.35 106.15 130.51C105.64 130.67 105.16 130.93 104.75 131.28C104.48 131.51 104.25 131.78 104.05 132.08C103.07 133.64 103.56 135.9 104.57 140.35C104.73 141.05 104.87 141.62 104.96 142.01L107 151.33C107 151.33 102 152.46 102.28 156.42C102.28 156.42 97.66 153.69 95.87 159.06C95.87 159.06 90.02 159.54 91.72 165.95C91.72 165.95 94.08 174.53 97.56 174.81C97.56 174.81 96.91 188.2 108.03 194.06L126.23 191.77L127.43 186.59C130.58 172.94 129.16 168.51 128.63 166.87C128.12 165.27 127.41 163.73 126.52 162.3Z" fill="#FFFFFF" fill-opacity="1.000000" fill-rule="nonzero"/>
		<path id="Vector" d="M110.39 186.47C110.28 186.47 110.17 186.45 110.07 186.4C109.98 186.35 109.89 186.27 109.83 186.19C107.72 183.33 106.42 179.97 106.05 176.45C105.25 168.4 109.85 162.45 111.73 160.4L110.27 156.63C110.13 156.25 109.94 155.77 109.74 155.28C108.58 152.59 108.06 150.33 108.19 148.56C108.23 148.03 108.37 147.5 108.62 147.03C108.86 146.55 109.2 146.13 109.62 145.78C110.02 145.45 110.49 145.2 110.99 145.05C111.5 144.89 112.03 144.85 112.55 144.91C115.72 145.26 117.62 148.89 117.7 149.04C117.74 149.12 117.77 149.21 117.77 149.3C117.78 149.39 117.77 149.48 117.74 149.57C117.71 149.66 117.67 149.74 117.61 149.81C117.55 149.88 117.48 149.94 117.4 149.98C117.31 150.02 117.22 150.05 117.13 150.06C117.04 150.06 116.95 150.05 116.86 150.03C116.77 150 116.69 149.95 116.62 149.89C116.55 149.83 116.49 149.76 116.45 149.68C116.45 149.65 114.82 146.57 112.39 146.3C112.06 146.26 111.72 146.29 111.39 146.39C111.07 146.49 110.77 146.65 110.51 146.86C110.24 147.09 110.02 147.36 109.86 147.67C109.7 147.98 109.61 148.32 109.59 148.67C109.47 150.21 109.95 152.25 111.02 154.73C111.24 155.24 111.44 155.75 111.58 156.13L113.36 160.72L113.05 161.04C111.53 162.61 106.65 168.35 107.45 176.3C107.79 179.58 109 182.7 110.95 185.35C111.06 185.5 111.1 185.69 111.08 185.87C111.05 186.05 110.95 186.22 110.8 186.33C110.68 186.42 110.54 186.47 110.39 186.47Z" fill="#262626" fill-opacity="1.000000" fill-rule="nonzero"/>
		<path id="Vector" d="M150.04 255.6C145.3 255.29 140.54 255.85 136.01 257.27C119.14 262.58 111.65 278.16 110.06 281.69L150.04 281.9L150.04 255.6Z" fill="#FFFFFF" fill-opacity="1.000000" fill-rule="nonzero"/>
		<path id="Vector" d="M150.74 282.6L108.98 282.39L109.42 281.41C112.03 275.62 119.82 261.63 135.8 256.6C140.42 255.16 145.26 254.58 150.08 254.9L150.74 254.94L150.74 282.6ZM111.16 281L149.34 281.2L149.34 256.26C144.9 256.04 140.46 256.62 136.22 257.95C121.62 262.53 114.07 274.92 111.16 281Z" fill="#262626" fill-opacity="1.000000" fill-rule="nonzero"/>
		<path id="Vector" d="M104.13 176.75C103.45 176.75 102.77 176.6 102.15 176.31C101.38 175.93 100.73 175.35 100.27 174.64C100.03 174.93 99.73 175.17 99.39 175.33C98.74 175.64 98.01 175.68 97.33 175.46C97.25 175.43 97.17 175.38 97.1 175.32C97.03 175.25 96.98 175.18 96.94 175.1C96.9 175.01 96.88 174.92 96.87 174.83C96.87 174.74 96.88 174.65 96.92 174.56C96.95 174.47 97 174.39 97.06 174.33C97.12 174.26 97.19 174.2 97.28 174.16C97.36 174.13 97.45 174.1 97.54 174.1C97.63 174.1 97.73 174.11 97.81 174.14C98.13 174.24 98.48 174.21 98.78 174.07C98.99 173.94 99.17 173.76 99.32 173.55C99.46 173.35 99.56 173.11 99.61 172.87L100.31 170.59L100.96 172.88C100.96 172.88 101.43 174.41 102.78 175.04C103.74 175.5 104.96 175.42 106.4 174.81C106.48 174.77 106.58 174.75 106.67 174.74C106.77 174.74 106.86 174.76 106.95 174.79C107.03 174.82 107.12 174.87 107.18 174.94C107.25 175.01 107.3 175.08 107.34 175.17C107.38 175.26 107.4 175.35 107.4 175.44C107.4 175.54 107.38 175.63 107.34 175.72C107.3 175.81 107.25 175.88 107.18 175.95C107.11 176.01 107.03 176.06 106.94 176.1C106.06 176.5 105.1 176.72 104.13 176.75Z" fill="#262626" fill-opacity="1.000000" fill-rule="nonzero"/>
		<path id="Vector" d="M100.28 173.78C100.13 173.78 99.98 173.73 99.86 173.64C99.75 173.55 99.66 173.43 99.61 173.29L95.2 159.27C95.14 159.09 95.16 158.9 95.24 158.73C95.33 158.57 95.48 158.44 95.65 158.39C95.83 158.33 96.02 158.35 96.19 158.44C96.35 158.52 96.48 158.67 96.53 158.85L100.93 172.87C100.96 172.96 100.97 173.05 100.96 173.14C100.95 173.23 100.93 173.32 100.88 173.4C100.84 173.48 100.78 173.56 100.71 173.61C100.64 173.67 100.56 173.72 100.47 173.75C100.41 173.77 100.34 173.78 100.28 173.78Z" fill="#262626" fill-opacity="1.000000" fill-rule="nonzero"/>
		<path id="Vector" d="M107.21 170.88C107.06 170.88 106.92 170.83 106.8 170.75C106.69 170.66 106.6 170.55 106.55 170.41L101.63 156.65C101.6 156.57 101.59 156.47 101.59 156.38C101.6 156.29 101.62 156.2 101.66 156.12C101.7 156.03 101.75 155.96 101.82 155.9C101.89 155.83 101.97 155.79 102.06 155.75C102.14 155.72 102.23 155.71 102.33 155.72C102.42 155.72 102.51 155.74 102.59 155.78C102.67 155.82 102.75 155.88 102.81 155.95C102.87 156.01 102.92 156.09 102.95 156.18L107.85 169.94C107.89 170.05 107.9 170.16 107.89 170.27C107.87 170.38 107.83 170.49 107.76 170.58C107.7 170.67 107.61 170.75 107.51 170.8C107.41 170.85 107.3 170.88 107.19 170.88L107.21 170.88Z" fill="#262626" fill-opacity="1.000000" fill-rule="nonzero"/>
		<path id="Vector" d="M244.68 93.48L290.48 93.48C297.12 93.48 302.5 98.87 302.5 105.51C302.5 112.15 297.12 117.53 290.48 117.53L244.68 117.53C238.04 117.53 232.65 112.15 232.65 105.51C232.65 98.87 238.04 93.48 244.68 93.48Z" fill="#FFFFFF" fill-opacity="1.000000" fill-rule="evenodd"/>
		<path id="Vector" d="M290.5 118.24L244.68 118.24C241.3 118.24 238.07 116.9 235.68 114.51C233.29 112.12 231.95 108.89 231.95 105.51C231.95 102.13 233.29 98.9 235.68 96.51C238.07 94.12 241.3 92.78 244.68 92.78L290.5 92.78C293.87 92.78 297.11 94.12 299.49 96.51C301.88 98.9 303.22 102.13 303.22 105.51C303.22 108.89 301.88 112.12 299.49 114.51C297.11 116.9 293.87 118.24 290.5 118.24ZM244.68 94.18C241.67 94.18 238.79 95.38 236.67 97.5C234.54 99.62 233.35 102.51 233.35 105.51C233.35 108.51 234.54 111.39 236.67 113.52C238.79 115.64 241.67 116.84 244.68 116.84L290.5 116.84C293.5 116.84 296.38 115.64 298.5 113.52C300.63 111.39 301.82 108.51 301.82 105.51C301.82 102.51 300.63 99.62 298.5 97.5C296.38 95.38 293.5 94.18 290.5 94.18L244.68 94.18Z" fill="#262626" fill-opacity="1.000000" fill-rule="nonzero"/>
		<path id="Vector" d="M252.46 105.51C252.46 107.67 250.71 109.43 248.55 109.43C246.38 109.43 244.63 107.67 244.63 105.51C244.63 103.35 246.38 101.59 248.55 101.59C250.71 101.59 252.46 103.35 252.46 105.51Z" fill="#F9B800" fill-opacity="1.000000" fill-rule="evenodd"/>
		<path id="Vector" d="M271.49 105.51C271.49 107.67 269.74 109.43 267.58 109.43C265.41 109.43 263.66 107.67 263.66 105.51C263.66 103.35 265.41 101.59 267.58 101.59C269.74 101.59 271.49 103.35 271.49 105.51Z" fill="#F9B800" fill-opacity="1.000000" fill-rule="evenodd"/>
		<path id="Vector" d="M290.52 105.51C290.52 107.67 288.77 109.43 286.61 109.43C284.44 109.43 282.69 107.67 282.69 105.51C282.69 103.35 284.44 101.59 286.61 101.59C288.77 101.59 290.52 103.35 290.52 105.51Z" fill="#F9B800" fill-opacity="1.000000" fill-rule="evenodd"/>
		<path id="Vector" d="M39.44 159.41L61.68 159.41C66.24 159.41 69.93 163.1 69.93 167.65L69.93 189.9C69.93 194.45 66.24 198.14 61.68 198.14L39.44 198.14C34.89 198.14 31.19 194.45 31.19 189.9L31.19 167.65C31.19 163.1 34.89 159.41 39.44 159.41Z" fill="#FFFFFF" fill-opacity="1.000000" fill-rule="evenodd"/>
		<path id="Vector" d="M61.68 198.84L39.44 198.84C37.07 198.84 34.79 197.89 33.12 196.22C31.44 194.54 30.5 192.26 30.49 189.89L30.49 167.65C30.5 165.27 31.44 163 33.12 161.32C34.79 159.64 37.07 158.7 39.44 158.7L61.68 158.7C64.05 158.7 66.33 159.64 68 161.32C69.68 163 70.63 165.27 70.63 167.65L70.63 189.88C70.63 192.26 69.69 194.53 68.01 196.21C66.33 197.89 64.05 198.84 61.68 198.84ZM39.44 160.11C37.44 160.11 35.52 160.9 34.11 162.32C32.69 163.73 31.9 165.65 31.89 167.65L31.89 189.88C31.9 191.88 32.69 193.8 34.11 195.22C35.52 196.63 37.44 197.43 39.44 197.43L61.68 197.43C63.68 197.43 65.6 196.63 67.01 195.22C68.43 193.8 69.23 191.88 69.23 189.88L69.23 167.65C69.23 165.64 68.43 163.72 67.02 162.31C65.6 160.89 63.68 160.1 61.68 160.1L39.44 160.11Z" fill="#262626" fill-opacity="1.000000" fill-rule="nonzero"/>
		<path id="Vector" d="M61.36 172.44C60.94 171.66 60.3 171.01 59.52 170.56C55.95 168.57 52.34 169.8 50.57 172.4C48.78 169.77 45.1 168.53 41.47 170.65C40.81 171.04 40.26 171.58 39.87 172.23C38.23 174.99 38.55 177.76 39.93 179.73C39.96 179.77 39.98 179.8 40.01 179.83L40.01 179.85C40.04 179.89 41.8 181.93 42.89 183.04C44.99 185.08 47.19 187.02 49.49 188.84C49.78 189.08 50.15 189.21 50.54 189.21C50.92 189.21 51.29 189.08 51.59 188.84C53.56 187.26 55.17 185.89 56.36 184.85C57.27 184.09 58.13 183.27 58.94 182.4C60.65 180.5 64.43 178.02 61.36 172.44Z" fill="#D3B970" fill-opacity="1.000000" fill-rule="nonzero"/>
		<path id="Vector" d="M246.32 144.86L314.59 144.86C321.08 144.86 326.35 150.13 326.35 156.63L326.35 231.36C326.35 237.86 321.08 243.13 314.59 243.13L246.32 243.13C239.82 243.13 234.55 237.86 234.55 231.36L234.55 156.63C234.55 150.13 239.82 144.86 246.32 144.86Z" fill="#FFFFFF" fill-opacity="1.000000" fill-rule="evenodd"/>
		<path id="Vector" d="M314.59 243.83L246.32 243.83C243.01 243.83 239.84 242.51 237.51 240.17C235.17 237.84 233.86 234.67 233.85 231.36L233.85 156.63C233.86 153.32 235.17 150.15 237.51 147.82C239.84 145.48 243.01 144.16 246.32 144.16L314.59 144.16C317.89 144.16 321.06 145.48 323.4 147.82C325.73 150.15 327.05 153.32 327.05 156.63L327.05 231.36C327.05 234.67 325.73 237.84 323.4 240.17C321.06 242.51 317.89 243.83 314.59 243.83ZM246.32 145.56C243.38 145.56 240.57 146.73 238.5 148.81C236.42 150.88 235.26 153.69 235.25 156.63L235.25 231.36C235.26 234.3 236.42 237.11 238.5 239.18C240.57 241.26 243.38 242.43 246.32 242.43L314.59 242.43C317.52 242.43 320.33 241.26 322.41 239.18C324.48 237.11 325.65 234.3 325.65 231.36L325.65 156.63C325.65 153.69 324.48 150.88 322.41 148.81C320.33 146.73 317.52 145.56 314.59 145.56L246.32 145.56Z" fill="#262626" fill-opacity="1.000000" fill-rule="nonzero"/>
		<path id="Vector" d="M248.36 181.82L257.49 181.82C260.14 181.82 262.29 183.97 262.29 186.62L262.29 195.75C262.29 198.4 260.14 200.55 257.49 200.55L248.36 200.55C245.71 200.55 243.56 198.4 243.56 195.75L243.56 186.62C243.56 183.97 245.71 181.82 248.36 181.82Z" fill="#FFF1C9" fill-opacity="1.000000" fill-rule="evenodd"/>
		<path id="Vector" d="M248.36 210.25L257.49 210.25C260.14 210.25 262.29 212.4 262.29 215.05L262.29 224.18C262.29 226.83 260.14 228.98 257.49 228.98L248.36 228.98C245.71 228.98 243.56 226.83 243.56 224.18L243.56 215.05C243.56 212.4 245.71 210.25 248.36 210.25Z" fill="#FFF1C9" fill-opacity="1.000000" fill-rule="evenodd"/>
		<path id="Vector" d="M316.12 186.63L273.85 186.63C273.66 186.63 273.48 186.55 273.35 186.42C273.22 186.29 273.15 186.11 273.15 185.93C273.15 185.74 273.22 185.56 273.35 185.43C273.48 185.3 273.66 185.23 273.85 185.23L316.12 185.23C316.3 185.23 316.48 185.3 316.61 185.43C316.75 185.56 316.82 185.74 316.82 185.93C316.82 186.11 316.75 186.29 316.61 186.42C316.48 186.55 316.3 186.63 316.12 186.63Z" fill="#262626" fill-opacity="1.000000" fill-rule="nonzero"/>
		<path id="Vector" d="M299.9 196.93L273.85 196.93C273.66 196.93 273.48 196.86 273.35 196.73C273.22 196.6 273.15 196.42 273.15 196.23C273.15 196.05 273.22 195.87 273.35 195.74C273.48 195.61 273.66 195.53 273.85 195.53L299.9 195.53C300.09 195.53 300.27 195.61 300.4 195.74C300.53 195.87 300.6 196.05 300.6 196.23C300.6 196.42 300.53 196.6 300.4 196.73C300.27 196.86 300.09 196.93 299.9 196.93Z" fill="#262626" fill-opacity="1.000000" fill-rule="nonzero"/>
		<path id="Vector" d="M316.12 215.16L273.85 215.16C273.66 215.16 273.48 215.08 273.35 214.95C273.22 214.82 273.15 214.64 273.15 214.46C273.15 214.27 273.22 214.09 273.35 213.96C273.48 213.83 273.66 213.76 273.85 213.76L316.12 213.76C316.3 213.76 316.48 213.83 316.61 213.96C316.75 214.09 316.82 214.27 316.82 214.46C316.82 214.64 316.75 214.82 316.61 214.95C316.48 215.08 316.3 215.16 316.12 215.16Z" fill="#262626" fill-opacity="1.000000" fill-rule="nonzero"/>
		<path id="Vector" d="M299.9 225.47L273.85 225.47C273.66 225.47 273.48 225.39 273.35 225.26C273.22 225.13 273.15 224.95 273.15 224.77C273.15 224.58 273.22 224.4 273.35 224.27C273.48 224.14 273.66 224.07 273.85 224.07L299.9 224.07C300.09 224.07 300.27 224.14 300.4 224.27C300.53 224.4 300.6 224.58 300.6 224.77C300.6 224.95 300.53 225.13 300.4 225.26C300.27 225.39 300.09 225.47 299.9 225.47Z" fill="#262626" fill-opacity="1.000000" fill-rule="nonzero"/>
		<path id="Vector" d="M260.26 158.03C259.97 157.49 259.53 157.05 259 156.75C256.54 155.37 254.07 156.22 252.86 158.01C251.63 156.2 249.11 155.35 246.63 156.8C246.18 157.06 245.81 157.44 245.54 157.89C244.41 159.77 244.63 161.67 245.58 163.02C245.6 163.05 245.62 163.07 245.64 163.09C245.66 163.12 246.86 164.52 247.61 165.28C248.26 165.93 249.85 167.41 252.13 169.25C252.33 169.42 252.58 169.5 252.84 169.5C253.1 169.5 253.36 169.42 253.56 169.25C254.91 168.17 256.01 167.23 256.83 166.52C257.45 166 258.04 165.44 258.58 164.84C259.77 163.56 262.36 161.86 260.26 158.03Z" fill="#D3B970" fill-opacity="1.000000" fill-rule="nonzero"/>
		<path id="Vector" d="M230.71 289.06L154.9 289.06C153.74 289.06 152.6 288.83 151.53 288.39C150.46 287.95 149.49 287.3 148.67 286.48C147.85 285.66 147.2 284.69 146.76 283.62C146.32 282.55 146.09 281.41 146.09 280.25L146.09 265.72C146.09 260.53 148.15 255.56 151.82 251.89C155.48 248.22 160.46 246.16 165.64 246.16L247.73 246.16C251.16 246.16 254.45 247.53 256.88 249.95C259.31 252.38 260.68 255.68 260.68 259.11C260.67 263.04 259.9 266.94 258.39 270.57C256.88 274.21 254.68 277.51 251.89 280.29C249.11 283.07 245.81 285.28 242.17 286.78C238.54 288.28 234.64 289.06 230.71 289.06Z" fill="#FFE18B" fill-opacity="1.000000" fill-rule="nonzero"/>
		<path id="Vector" d="M113.48 290.45C110.34 290.38 107.24 289.7 104.37 288.44C101.49 287.18 98.9 285.36 96.72 283.1C94.55 280.83 92.84 278.16 91.7 275.23C90.56 272.31 90.01 269.19 90.07 266.05L91.38 203.24C91.46 199.64 92.96 196.21 95.57 193.71C98.17 191.21 101.66 189.85 105.27 189.93L125.86 190.36C129.47 190.44 132.89 191.94 135.39 194.54C137.88 197.15 139.24 200.63 139.16 204.24L137.87 267.04C137.81 270.18 137.12 273.28 135.86 276.15C134.6 279.03 132.78 281.63 130.52 283.8C128.25 285.97 125.58 287.68 122.66 288.82C119.73 289.96 116.61 290.51 113.48 290.45Z" fill="#FFE18B" fill-opacity="1.000000" fill-rule="nonzero"/>
		<path id="Vector" d="M225.57 246.16L206.57 246.16C206.38 246.16 206.2 246.08 206.07 245.95C205.94 245.82 205.87 245.64 205.87 245.46C205.87 245.27 205.94 245.09 206.07 244.96C206.2 244.83 206.38 244.76 206.57 244.76L225.57 244.76C225.76 244.76 225.93 244.83 226.07 244.96C226.2 245.09 226.27 245.27 226.27 245.46C226.27 245.64 226.2 245.82 226.07 245.95C225.93 246.08 225.76 246.16 225.57 246.16Z" fill="#262626" fill-opacity="1.000000" fill-rule="nonzero"/>
		<path id="Vector" d="M203.63 144.39C202.62 144.39 201.64 144.1 200.8 143.54C199.96 142.98 199.31 142.19 198.92 141.25C198.54 140.33 198.44 139.3 198.63 138.32C198.83 137.33 199.31 136.42 200.02 135.71C200.73 135 201.64 134.51 202.63 134.32C203.61 134.12 204.64 134.22 205.57 134.6C206.5 134.98 207.29 135.64 207.85 136.47C208.41 137.31 208.71 138.29 208.71 139.3C208.72 139.96 208.58 140.63 208.33 141.25C208.07 141.86 207.7 142.43 207.23 142.9C206.75 143.37 206.19 143.75 205.57 144C204.96 144.26 204.29 144.39 203.63 144.39ZM203.63 135.62C202.9 135.62 202.18 135.83 201.57 136.24C200.97 136.64 200.5 137.22 200.22 137.9C199.94 138.57 199.86 139.31 200.01 140.03C200.15 140.75 200.5 141.4 201.02 141.92C201.54 142.43 202.2 142.78 202.91 142.92C203.63 143.07 204.37 142.99 205.04 142.71C205.72 142.43 206.29 141.96 206.7 141.35C207.1 140.74 207.32 140.03 207.31 139.3C207.31 138.32 206.92 137.38 206.23 136.69C205.54 136 204.6 135.62 203.63 135.62Z" fill="#262626" fill-opacity="1.000000" fill-rule="nonzero"/>
		<path id="Vector" d="M139.26 206.07C139.07 206.07 138.9 205.99 138.77 205.86C138.63 205.73 138.56 205.55 138.56 205.37C138.47 191.4 127.05 191.1 126.57 191.1C126.38 191.1 126.2 191.02 126.07 190.89C125.94 190.76 125.87 190.58 125.87 190.4C125.87 190.21 125.94 190.03 126.07 189.9C126.2 189.77 126.38 189.7 126.57 189.7C126.7 189.7 139.85 190 139.95 205.37C139.95 205.56 139.87 205.74 139.74 205.87C139.61 206 139.43 206.07 139.25 206.07L139.26 206.07Z" fill="#262626" fill-opacity="1.000000" fill-rule="nonzero"/>
		<path id="Vector" d="M180.18 175.39L158.48 175.39C158.3 175.39 158.12 175.31 157.99 175.18C157.86 175.05 157.78 174.87 157.78 174.69C157.78 174.5 157.86 174.32 157.99 174.19C158.12 174.06 158.3 173.99 158.48 173.99L180.18 173.99C180.37 173.99 180.55 174.06 180.68 174.19C180.81 174.32 180.88 174.5 180.88 174.69C180.88 174.87 180.81 175.05 180.68 175.18C180.55 175.31 180.37 175.39 180.18 175.39Z" fill="#262626" fill-opacity="1.000000" fill-rule="nonzero"/>
		<path id="Vector" d="M159.62 286.34C159.43 286.34 159.25 286.26 159.12 286.13C158.99 286 158.92 285.82 158.92 285.64L158.92 253.89C158.92 253.7 158.99 253.52 159.12 253.39C159.25 253.26 159.43 253.19 159.62 253.19C159.8 253.19 159.98 253.26 160.11 253.39C160.24 253.52 160.32 253.7 160.32 253.89L160.32 285.64C160.32 285.82 160.24 286 160.11 286.13C159.98 286.26 159.8 286.34 159.62 286.34Z" fill="#262626" fill-opacity="1.000000" fill-rule="nonzero"/>
		<path id="Vector" d="M130.77 203.09L99.02 203.09C98.84 203.09 98.66 203.02 98.53 202.89C98.4 202.76 98.32 202.58 98.32 202.39C98.32 202.21 98.4 202.03 98.53 201.9C98.66 201.77 98.84 201.69 99.02 201.69L130.77 201.69C130.96 201.69 131.14 201.77 131.27 201.9C131.4 202.03 131.47 202.21 131.47 202.39C131.47 202.58 131.4 202.76 131.27 202.89C131.14 203.02 130.96 203.09 130.77 203.09Z" fill="#262626" fill-opacity="1.000000" fill-rule="nonzero"/>
		<path id="Vector" d="M54.53 250.56C54.39 250.56 54.25 250.51 54.13 250.43C54.01 250.35 53.92 250.23 53.87 250.1C49.81 239.02 41.42 230.03 41.34 229.95C41.21 229.81 41.14 229.63 41.15 229.44C41.15 229.26 41.23 229.08 41.37 228.96C41.5 228.83 41.68 228.76 41.87 228.76C42.05 228.77 42.23 228.85 42.36 228.98C42.44 229.07 51.03 238.27 55.19 249.63C55.25 249.81 55.25 250 55.17 250.17C55.09 250.34 54.95 250.47 54.77 250.53C54.7 250.55 54.61 250.56 54.53 250.56Z" fill="#262626" fill-opacity="1.000000" fill-rule="nonzero"/>
		<path id="Vector" d="M58.49 251.7C58.31 251.7 58.13 251.62 58 251.49C57.87 251.36 57.79 251.18 57.79 251L57.79 241.41C57.79 241.23 57.87 241.05 58 240.92C58.13 240.79 58.31 240.71 58.49 240.71C58.68 240.71 58.86 240.79 58.99 240.92C59.12 241.05 59.19 241.23 59.19 241.41L59.19 251C59.19 251.18 59.12 251.36 58.99 251.49C58.86 251.62 58.68 251.7 58.49 251.7Z" fill="#262626" fill-opacity="1.000000" fill-rule="nonzero"/>
		<path id="Vector" d="M79.12 265.41C79.12 263.12 78.21 260.93 76.59 259.31C74.97 257.68 72.77 256.77 70.48 256.77L68.55 256.77L68.55 250.25L44.73 250.25L44.73 256.78L42.81 256.78C40.52 256.78 38.32 257.69 36.7 259.31C35.08 260.93 34.17 263.13 34.17 265.42C34.17 267.71 35.08 269.9 36.7 271.52C38.32 273.14 40.52 274.05 42.81 274.04C41.67 274.04 40.55 274.27 39.5 274.7C38.45 275.14 37.5 275.77 36.7 276.57C35.89 277.38 35.26 278.33 34.82 279.38C34.39 280.43 34.17 281.55 34.17 282.68C34.16 283.82 34.39 284.94 34.82 285.99C35.26 287.04 35.89 287.99 36.7 288.79C37.5 289.6 38.45 290.23 39.5 290.67C40.55 291.1 41.67 291.32 42.81 291.32L70.48 291.32C72.77 291.32 74.97 290.41 76.59 288.79C78.21 287.17 79.12 284.98 79.12 282.68C79.12 280.39 78.21 278.2 76.59 276.57C74.97 274.96 72.77 274.04 70.48 274.04C72.77 274.04 74.96 273.14 76.58 271.52C78.21 269.9 79.12 267.7 79.12 265.41Z" fill="#F9B800" fill-opacity="1.000000" fill-rule="nonzero"/>
		<path id="Vector" d="M70.84 274.79L61.08 274.79C60.89 274.79 60.72 274.72 60.59 274.59C60.45 274.46 60.38 274.28 60.38 274.09C60.38 273.91 60.45 273.73 60.59 273.6C60.72 273.47 60.89 273.39 61.08 273.39L70.84 273.39C71.03 273.39 71.21 273.47 71.34 273.6C71.47 273.73 71.54 273.91 71.54 274.09C71.54 274.28 71.47 274.46 71.34 274.59C71.21 274.72 71.03 274.79 70.84 274.79Z" fill="#262626" fill-opacity="1.000000" fill-rule="nonzero"/>
		<path id="Vector" d="M47.4 274.75L42.29 274.75C42.1 274.75 41.93 274.67 41.79 274.54C41.66 274.41 41.59 274.23 41.59 274.04C41.59 273.86 41.66 273.68 41.79 273.55C41.93 273.42 42.1 273.35 42.29 273.35L47.4 273.35C47.58 273.35 47.76 273.42 47.89 273.55C48.03 273.68 48.1 273.86 48.1 274.04C48.1 274.23 48.03 274.41 47.89 274.54C47.76 274.67 47.58 274.75 47.4 274.75Z" fill="#262626" fill-opacity="1.000000" fill-rule="nonzero"/>
		<path id="Vector" d="M68.77 249.75C68.77 251.14 63.34 252.28 56.65 252.28C49.95 252.28 44.52 251.14 44.52 249.75C44.52 248.35 49.95 247.22 56.65 247.22C63.34 247.22 68.77 248.35 68.77 249.75Z" fill="#262626" fill-opacity="1.000000" fill-rule="evenodd"/>
		<path id="Vector" d="M64.22 235.69C64.22 238.85 61.65 241.41 58.49 241.41C55.33 241.41 52.77 238.85 52.77 235.69C52.77 232.53 55.33 229.97 58.49 229.97C61.65 229.97 64.22 232.53 64.22 235.69Z" fill="#FFBB45" fill-opacity="1.000000" fill-rule="evenodd"/>
		<path id="Vector" d="M45.92 227.12C45.92 230.51 43.17 233.26 39.79 233.26C36.4 233.26 33.65 230.51 33.65 227.12C33.65 223.74 36.4 220.99 39.79 220.99C43.17 220.99 45.92 223.74 45.92 227.12Z" fill="#FFBB45" fill-opacity="1.000000" fill-rule="evenodd"/>
		<path id="Vector" d="M113.61 139.13C112.91 137.22 111.9 134.77 110.48 132.72C109.27 130.97 107.9 130.23 106.39 130.5C105.95 130.55 105.53 130.7 105.15 130.93C104.78 131.16 104.46 131.48 104.23 131.85C103.03 133.76 103.83 137.14 104.23 138.5L104.28 138.67L102.94 139.1L102.88 138.89C102.33 136.97 101.6 133.41 103.04 131.11C103.38 130.57 103.84 130.11 104.37 129.76C104.91 129.42 105.52 129.2 106.15 129.11C108.22 128.76 110.11 129.72 111.63 131.91C113.15 134.11 114.18 136.65 114.93 138.64L113.61 139.13Z" fill="#262626" fill-opacity="1.000000" fill-rule="nonzero"/>
	</g>
</svg>
